<svg width="252" height="244" viewBox="0 0 252 244" fill="none" xmlns="http://www.w3.org/2000/svg">
<path d="M0 35C0 15.67 15.67 0 35 0C54.33 0 70 15.67 70 35V209C70 228.33 54.33 244 35 244C15.67 244 0 228.33 0 209V35Z" fill="#CEA651"/>
<path d="M182 35C182 15.67 197.67 0 217 0C236.33 0 252 15.67 252 35V209C252 228.33 236.33 244 217 244C197.67 244 182 228.33 182 209V35Z" fill="#CEA651" fill-opacity="0.8"/>
<path d="M91 80C91 60.67 106.67 45 126 45C145.33 45 161 60.67 161 80V112C161 131.33 145.33 147 126 147C106.67 147 91 131.33 91 112V80Z" fill="#CEA651" fill-opacity="0.9"/>
</svg>
